# xmcd
#
# Track frame offsets:
#	150
#	12286
#	24081
#	43513
#	56364
#	73553
#	87744
#	99886
#	108613
#	123325
#	134987
#	150522
#	164919
#	175472
#	188611
#	203178
#	221289
#	235092
#	244023
#	263792
#
# Disc length: 3761 seconds
#
# Revision: 1
# Processed by: cddbd v1.5.2PL0 Copyright (c) Steve Scherf et al.
# Submitted via: audiograbber 1.83.01
#
DISCID=140eaf14
DTITLE=Willie Nelson - The Platinum Collection
DYEAR=2008
DGENRE=Country
TTITLE0=Shotgun Willie
TTITLE1=Stay All Night (Stay A Little Longer)
TTITLE2=I Still Can't Believe You're Gone
TTITLE3=Bloody Mary Morning
TTITLE4=Sister's Coming Home - Down At The Corner Beer Joint
TTITLE5=Sad Songs And Waltzes
TTITLE6=Devil In A Sleepin' Bag
TTITLE7=Heaven And Hell
TTITLE8=She's Not For You
TTITLE9=Bubbles In My Beer
TTITLE10=You Look Like The Devil
TTITLE11=So Much To Do
TTITLE12=Local Memory
TTITLE13=Slow Down Old World
TTITLE14=I Drank All Of Our Precious Love Away
TTITLE15=I Gotta Have Something I Aint' Got
TTITLE16=Both Ends Of The Candle
TTITLE17=I'm So Ashamed
TTITLE18=A Song For You
TTITLE19=Whiskey River
EXTD=
EXTT0=
EXTT1=
EXTT2=
EXTT3=
EXTT4=
EXTT5=
EXTT6=
EXTT7=
EXTT8=
EXTT9=
EXTT10=
EXTT11=
EXTT12=
EXTT13=
EXTT14=
EXTT15=
EXTT16=
EXTT17=
EXTT18=
EXTT19=
PLAYORDER=
